<?xml version="1.0" encoding="utf-8"?>
<!-- Generator: Adobe Illustrator 24.0.2, SVG Export Plug-In . SVG Version: 6.00 Build 0)  -->
<svg version="1.1" id="Layer_1" xmlns="http://www.w3.org/2000/svg" xmlns:xlink="http://www.w3.org/1999/xlink" x="0px" y="0px"
	 viewBox="0 0 50.6 38" style="enable-background:new 0 0 50.6 38;" xml:space="preserve">
<style type="text/css">
	.st0{fill:#FFFFFF;}
</style>
<g>
	<path class="st0" d="M16.5,15.3l1.2-1.9c1.2-2,2.8-3.6,4.6-4.8C20.5,3.6,15.8,0,10.2,0C9.7,0,9.3,0,8.8,0.1
		c2.7,2.1,4.4,5.4,4.4,9.1c0,6.4-5.2,11.6-11.6,11.6c-0.5,0-1.1-0.1-1.6-0.1c2,2.6,5.1,4.5,8.5,4.9C9.2,21,12.2,17.1,16.5,15.3z"/>
	<path class="st0" d="M16.5,15.3l1.2-1.9c1.2-2,2.8-3.6,4.6-4.8C20.5,3.6,15.8,0,10.2,0C9.7,0,9.3,0,8.8,0.1
		c2.7,2.1,4.4,5.4,4.4,9.1c0,6.4-5.2,11.6-11.6,11.6c-0.5,0-1.1-0.1-1.6-0.1c2,2.6,5.1,4.5,8.5,4.9C9.2,21,12.2,17.1,16.5,15.3z"/>
	<path class="st0" d="M43.4,20.9c0,0-3.3-0.6-6.5,1.7c1.3-2.3,3.1-3.8,6.1-4.1c-1.4-5.2-6.1-9-11.7-9c-4.4,0-8.3,2.4-10.4,5.9
		c2.7,0.1,5.6,2.2,7.4,4.5c-1.7-1.3-3.8-2.1-6.2-2.1c-0.8,0-1.7,0.1-2.4,0.3c0,0,0,0,0-0.1c0,0,0,0,0,0.1c-4.4,1.1-7.6,5.1-7.6,9.8
		C12,33.4,16.5,38,22.1,38H42c4.8,0,8.6-3.9,8.6-8.6C50.6,25.1,47.5,21.5,43.4,20.9z"/>
</g>
</svg>
