<svg xmlns="http://www.w3.org/2000/svg" width="52.562" height="50.839" viewBox="0 0 52.562 50.839">
  <g id="search-circle-sharp" transform="translate(-64 -64)">
    <path id="Path_1" data-name="Path 1" d="M90.281,64C75.789,64,64,75.4,64,89.42s11.789,25.42,26.281,25.42,26.281-11.4,26.281-25.42S104.772,64,90.281,64Zm10.95,39.007-7.412-7.169a12.341,12.341,0,0,1-16.1-2.147,11.383,11.383,0,0,1,.742-15.705A12.358,12.358,0,0,1,94.7,77.268a11.4,11.4,0,0,1,2.22,15.574l7.412,7.169Z" fill="#fff"/>
    <ellipse id="Ellipse_1" data-name="Ellipse 1" cx="8.023" cy="7.622" rx="8.023" ry="7.622" transform="translate(79.243 78.737)" fill="#fff"/>
  </g>
</svg>
